<mxfile host="app.diagrams.net" modified="2024-01-23T20:25:30.468Z" agent="Mozilla/5.0 (Macintosh; Intel Mac OS X 10_15_7) AppleWebKit/537.36 (KHTML, like Gecko) Chrome/120.0.0.0 Safari/537.36" etag="SSJcInTwoiNyHN5Ztht2" version="22.1.22" type="onedrive">
  <diagram name="Page-1" id="10a91c8b-09ff-31b1-d368-03940ed4cc9e">
    <mxGraphModel grid="1" page="1" gridSize="10" guides="1" tooltips="1" connect="1" arrows="1" fold="1" pageScale="1" pageWidth="600" pageHeight="500" background="none" math="0" shadow="0">
      <root>
        <mxCell id="0" />
        <mxCell id="1" parent="0" />
        <mxCell id="yzfiAGTPTl4m4QUiCUeX-1" value="1: Tor" style="swimlane;fontStyle=0;childLayout=stackLayout;horizontal=1;startSize=30;horizontalStack=0;resizeParent=1;resizeParentMax=0;resizeLast=0;collapsible=1;marginBottom=0;whiteSpace=wrap;html=1;fillColor=#f8cecc;strokeColor=#b85450;" vertex="1" parent="1">
          <mxGeometry x="835" y="20" width="300" height="60" as="geometry" />
        </mxCell>
        <mxCell id="yzfiAGTPTl4m4QUiCUeX-2" value="0+94=94" style="text;strokeColor=none;fillColor=none;align=center;verticalAlign=middle;spacingLeft=4;spacingRight=4;overflow=hidden;points=[[0,0.5],[1,0.5]];portConstraint=eastwest;rotatable=0;whiteSpace=wrap;html=1;" vertex="1" parent="yzfiAGTPTl4m4QUiCUeX-1">
          <mxGeometry y="30" width="300" height="30" as="geometry" />
        </mxCell>
        <mxCell id="0l1d8Q7E10GmN1pCX7sC-3" value="2: Mis" style="swimlane;fontStyle=0;childLayout=stackLayout;horizontal=1;startSize=30;horizontalStack=0;resizeParent=1;resizeParentMax=0;resizeLast=0;collapsible=1;marginBottom=0;whiteSpace=wrap;html=1;" vertex="1" parent="1">
          <mxGeometry x="835" y="100" width="300" height="60" as="geometry" />
        </mxCell>
        <mxCell id="0l1d8Q7E10GmN1pCX7sC-4" value="28+72=100" style="text;strokeColor=none;fillColor=none;align=center;verticalAlign=middle;spacingLeft=4;spacingRight=4;overflow=hidden;points=[[0,0.5],[1,0.5]];portConstraint=eastwest;rotatable=0;whiteSpace=wrap;html=1;" vertex="1" parent="0l1d8Q7E10GmN1pCX7sC-3">
          <mxGeometry y="30" width="300" height="30" as="geometry" />
        </mxCell>
        <mxCell id="0l1d8Q7E10GmN1pCX7sC-9" value="3: Mil" style="swimlane;fontStyle=0;childLayout=stackLayout;horizontal=1;startSize=30;horizontalStack=0;resizeParent=1;resizeParentMax=0;resizeLast=0;collapsible=1;marginBottom=0;whiteSpace=wrap;html=1;" vertex="1" parent="1">
          <mxGeometry x="840" y="180" width="140" height="60" as="geometry" />
        </mxCell>
        <mxCell id="0l1d8Q7E10GmN1pCX7sC-10" value="58+52=110" style="text;strokeColor=none;fillColor=none;align=center;verticalAlign=middle;spacingLeft=4;spacingRight=4;overflow=hidden;points=[[0,0.5],[1,0.5]];portConstraint=eastwest;rotatable=0;whiteSpace=wrap;html=1;" vertex="1" parent="0l1d8Q7E10GmN1pCX7sC-9">
          <mxGeometry y="30" width="140" height="30" as="geometry" />
        </mxCell>
        <mxCell id="0l1d8Q7E10GmN1pCX7sC-11" value="4: Oak" style="swimlane;fontStyle=0;childLayout=stackLayout;horizontal=1;startSize=30;horizontalStack=0;resizeParent=1;resizeParentMax=0;resizeLast=0;collapsible=1;marginBottom=0;whiteSpace=wrap;html=1;" vertex="1" parent="1">
          <mxGeometry x="990" y="180" width="140" height="60" as="geometry" />
        </mxCell>
        <mxCell id="0l1d8Q7E10GmN1pCX7sC-12" value="49+67=116" style="text;strokeColor=none;fillColor=none;align=center;verticalAlign=middle;spacingLeft=4;spacingRight=4;overflow=hidden;points=[[0,0.5],[1,0.5]];portConstraint=eastwest;rotatable=0;whiteSpace=wrap;html=1;" vertex="1" parent="0l1d8Q7E10GmN1pCX7sC-11">
          <mxGeometry y="30" width="140" height="30" as="geometry" />
        </mxCell>
        <mxCell id="0l1d8Q7E10GmN1pCX7sC-13" style="edgeStyle=none;curved=1;rounded=0;orthogonalLoop=1;jettySize=auto;html=1;entryX=0.5;entryY=0;entryDx=0;entryDy=0;fontSize=12;startSize=8;endSize=8;fillColor=#d5e8d4;strokeColor=#82b366;" edge="1" parent="1" source="yzfiAGTPTl4m4QUiCUeX-2" target="0l1d8Q7E10GmN1pCX7sC-3">
          <mxGeometry relative="1" as="geometry" />
        </mxCell>
        <mxCell id="0l1d8Q7E10GmN1pCX7sC-14" style="edgeStyle=none;curved=1;rounded=0;orthogonalLoop=1;jettySize=auto;html=1;entryX=0.75;entryY=0;entryDx=0;entryDy=0;fontSize=12;startSize=8;endSize=8;fillColor=#d5e8d4;strokeColor=#82b366;" edge="1" parent="1" source="0l1d8Q7E10GmN1pCX7sC-4" target="0l1d8Q7E10GmN1pCX7sC-9">
          <mxGeometry relative="1" as="geometry" />
        </mxCell>
        <mxCell id="0l1d8Q7E10GmN1pCX7sC-15" style="edgeStyle=none;curved=1;rounded=0;orthogonalLoop=1;jettySize=auto;html=1;fontSize=12;startSize=8;endSize=8;" edge="1" parent="1" source="0l1d8Q7E10GmN1pCX7sC-4" target="0l1d8Q7E10GmN1pCX7sC-11">
          <mxGeometry relative="1" as="geometry" />
        </mxCell>
        <mxCell id="0l1d8Q7E10GmN1pCX7sC-18" value="5: Cam" style="swimlane;fontStyle=0;childLayout=stackLayout;horizontal=1;startSize=30;horizontalStack=0;resizeParent=1;resizeParentMax=0;resizeLast=0;collapsible=1;marginBottom=0;whiteSpace=wrap;html=1;" vertex="1" parent="1">
          <mxGeometry x="780" y="260" width="80" height="60" as="geometry" />
        </mxCell>
        <mxCell id="0l1d8Q7E10GmN1pCX7sC-19" value="104+20=124" style="text;strokeColor=none;fillColor=none;align=center;verticalAlign=middle;spacingLeft=4;spacingRight=4;overflow=hidden;points=[[0,0.5],[1,0.5]];portConstraint=eastwest;rotatable=0;whiteSpace=wrap;html=1;" vertex="1" parent="0l1d8Q7E10GmN1pCX7sC-18">
          <mxGeometry y="30" width="80" height="30" as="geometry" />
        </mxCell>
        <mxCell id="0l1d8Q7E10GmN1pCX7sC-20" value="6: Gue" style="swimlane;fontStyle=0;childLayout=stackLayout;horizontal=1;startSize=30;horizontalStack=0;resizeParent=1;resizeParentMax=0;resizeLast=0;collapsible=1;marginBottom=0;whiteSpace=wrap;html=1;" vertex="1" parent="1">
          <mxGeometry x="870" y="260" width="80" height="60" as="geometry" />
        </mxCell>
        <mxCell id="0l1d8Q7E10GmN1pCX7sC-21" value="100+24=124" style="text;strokeColor=none;fillColor=none;align=center;verticalAlign=middle;spacingLeft=4;spacingRight=4;overflow=hidden;points=[[0,0.5],[1,0.5]];portConstraint=eastwest;rotatable=0;whiteSpace=wrap;html=1;" vertex="1" parent="0l1d8Q7E10GmN1pCX7sC-20">
          <mxGeometry y="30" width="80" height="30" as="geometry" />
        </mxCell>
        <mxCell id="0l1d8Q7E10GmN1pCX7sC-47" style="edgeStyle=none;curved=1;rounded=0;orthogonalLoop=1;jettySize=auto;html=1;exitX=0;exitY=0.5;exitDx=0;exitDy=0;entryX=0.5;entryY=0;entryDx=0;entryDy=0;fontSize=12;startSize=8;endSize=8;" edge="1" parent="1" source="0l1d8Q7E10GmN1pCX7sC-10" target="0l1d8Q7E10GmN1pCX7sC-18">
          <mxGeometry relative="1" as="geometry" />
        </mxCell>
        <mxCell id="0l1d8Q7E10GmN1pCX7sC-48" style="edgeStyle=none;curved=1;rounded=0;orthogonalLoop=1;jettySize=auto;html=1;entryX=0.5;entryY=0;entryDx=0;entryDy=0;fontSize=12;startSize=8;endSize=8;fillColor=#d5e8d4;strokeColor=#82b366;" edge="1" parent="1" source="0l1d8Q7E10GmN1pCX7sC-10" target="0l1d8Q7E10GmN1pCX7sC-20">
          <mxGeometry relative="1" as="geometry" />
        </mxCell>
        <mxCell id="0l1d8Q7E10GmN1pCX7sC-59" value="7: Kit" style="swimlane;fontStyle=0;childLayout=stackLayout;horizontal=1;startSize=30;horizontalStack=0;resizeParent=1;resizeParentMax=0;resizeLast=0;collapsible=1;marginBottom=0;whiteSpace=wrap;html=1;" vertex="1" parent="1">
          <mxGeometry x="870" y="340" width="70" height="60" as="geometry" />
        </mxCell>
        <mxCell id="0l1d8Q7E10GmN1pCX7sC-60" value="125+3=128" style="text;strokeColor=none;fillColor=none;align=center;verticalAlign=middle;spacingLeft=4;spacingRight=4;overflow=hidden;points=[[0,0.5],[1,0.5]];portConstraint=eastwest;rotatable=0;whiteSpace=wrap;html=1;" vertex="1" parent="0l1d8Q7E10GmN1pCX7sC-59">
          <mxGeometry y="30" width="70" height="30" as="geometry" />
        </mxCell>
        <mxCell id="0l1d8Q7E10GmN1pCX7sC-61" style="edgeStyle=none;curved=1;rounded=0;orthogonalLoop=1;jettySize=auto;html=1;entryX=0.5;entryY=0;entryDx=0;entryDy=0;fontSize=12;startSize=8;endSize=8;fillColor=#d5e8d4;strokeColor=#82b366;" edge="1" parent="1" source="0l1d8Q7E10GmN1pCX7sC-21" target="0l1d8Q7E10GmN1pCX7sC-59">
          <mxGeometry relative="1" as="geometry">
            <mxPoint x="924.2800000000001" y="317.33000000000015" as="sourcePoint" />
          </mxGeometry>
        </mxCell>
        <mxCell id="0l1d8Q7E10GmN1pCX7sC-62" value="8: Wat" style="swimlane;fontStyle=0;childLayout=stackLayout;horizontal=1;startSize=30;horizontalStack=0;resizeParent=1;resizeParentMax=0;resizeLast=0;collapsible=1;marginBottom=0;whiteSpace=wrap;html=1;fillColor=#d5e8d4;strokeColor=#82b366;" vertex="1" parent="1">
          <mxGeometry x="830" y="420" width="70" height="60" as="geometry" />
        </mxCell>
        <mxCell id="0l1d8Q7E10GmN1pCX7sC-63" value="128+0=128" style="text;strokeColor=none;fillColor=none;align=center;verticalAlign=middle;spacingLeft=4;spacingRight=4;overflow=hidden;points=[[0,0.5],[1,0.5]];portConstraint=eastwest;rotatable=0;whiteSpace=wrap;html=1;" vertex="1" parent="0l1d8Q7E10GmN1pCX7sC-62">
          <mxGeometry y="30" width="70" height="30" as="geometry" />
        </mxCell>
        <mxCell id="0l1d8Q7E10GmN1pCX7sC-64" style="edgeStyle=none;curved=1;rounded=0;orthogonalLoop=1;jettySize=auto;html=1;entryX=0.5;entryY=0;entryDx=0;entryDy=0;fontSize=12;startSize=8;endSize=8;fillColor=#d5e8d4;strokeColor=#82b366;" edge="1" parent="1" source="0l1d8Q7E10GmN1pCX7sC-60" target="0l1d8Q7E10GmN1pCX7sC-62">
          <mxGeometry relative="1" as="geometry" />
        </mxCell>
        <mxCell id="L9U4mOg5mWZtMqzpbvcK-15" value="Mil" style="swimlane;fontStyle=0;childLayout=stackLayout;horizontal=1;startSize=30;horizontalStack=0;resizeParent=1;resizeParentMax=0;resizeLast=0;collapsible=1;marginBottom=0;whiteSpace=wrap;html=1;" vertex="1" parent="1">
          <mxGeometry x="995" y="260" width="85" height="60" as="geometry" />
        </mxCell>
        <mxCell id="L9U4mOg5mWZtMqzpbvcK-16" value="79+52=131" style="text;strokeColor=none;fillColor=none;align=center;verticalAlign=middle;spacingLeft=4;spacingRight=4;overflow=hidden;points=[[0,0.5],[1,0.5]];portConstraint=eastwest;rotatable=0;whiteSpace=wrap;html=1;" vertex="1" parent="L9U4mOg5mWZtMqzpbvcK-15">
          <mxGeometry y="30" width="85" height="30" as="geometry" />
        </mxCell>
        <mxCell id="L9U4mOg5mWZtMqzpbvcK-22" value="" style="endArrow=classic;html=1;rounded=0;entryX=0.5;entryY=0;entryDx=0;entryDy=0;" edge="1" parent="1" source="0l1d8Q7E10GmN1pCX7sC-12" target="L9U4mOg5mWZtMqzpbvcK-15">
          <mxGeometry width="50" height="50" relative="1" as="geometry">
            <mxPoint x="1052" y="242" as="sourcePoint" />
            <mxPoint x="1080" y="380" as="targetPoint" />
          </mxGeometry>
        </mxCell>
        <mxCell id="L9U4mOg5mWZtMqzpbvcK-23" value="Ham" style="swimlane;fontStyle=0;childLayout=stackLayout;horizontal=1;startSize=30;horizontalStack=0;resizeParent=1;resizeParentMax=0;resizeLast=0;collapsible=1;marginBottom=0;whiteSpace=wrap;html=1;" vertex="1" parent="1">
          <mxGeometry x="1090" y="260" width="85" height="60" as="geometry" />
        </mxCell>
        <mxCell id="L9U4mOg5mWZtMqzpbvcK-24" value="82+57=139" style="text;strokeColor=none;fillColor=none;align=center;verticalAlign=middle;spacingLeft=4;spacingRight=4;overflow=hidden;points=[[0,0.5],[1,0.5]];portConstraint=eastwest;rotatable=0;whiteSpace=wrap;html=1;" vertex="1" parent="L9U4mOg5mWZtMqzpbvcK-23">
          <mxGeometry y="30" width="85" height="30" as="geometry" />
        </mxCell>
        <mxCell id="L9U4mOg5mWZtMqzpbvcK-25" value="" style="endArrow=classic;html=1;rounded=0;entryX=0.5;entryY=0;entryDx=0;entryDy=0;" edge="1" parent="1" source="0l1d8Q7E10GmN1pCX7sC-12" target="L9U4mOg5mWZtMqzpbvcK-23">
          <mxGeometry width="50" height="50" relative="1" as="geometry">
            <mxPoint x="1067" y="252" as="sourcePoint" />
            <mxPoint x="1048" y="270" as="targetPoint" />
          </mxGeometry>
        </mxCell>
        <mxCell id="L9U4mOg5mWZtMqzpbvcK-26" value="Gue" style="swimlane;fontStyle=0;childLayout=stackLayout;horizontal=1;startSize=30;horizontalStack=0;resizeParent=1;resizeParentMax=0;resizeLast=0;collapsible=1;marginBottom=0;whiteSpace=wrap;html=1;" vertex="1" parent="1">
          <mxGeometry x="610" y="340" width="80" height="60" as="geometry" />
        </mxCell>
        <mxCell id="L9U4mOg5mWZtMqzpbvcK-27" value="128+24=152" style="text;strokeColor=none;fillColor=none;align=center;verticalAlign=middle;spacingLeft=4;spacingRight=4;overflow=hidden;points=[[0,0.5],[1,0.5]];portConstraint=eastwest;rotatable=0;whiteSpace=wrap;html=1;" vertex="1" parent="L9U4mOg5mWZtMqzpbvcK-26">
          <mxGeometry y="30" width="80" height="30" as="geometry" />
        </mxCell>
        <mxCell id="L9U4mOg5mWZtMqzpbvcK-28" value="Kit" style="swimlane;fontStyle=0;childLayout=stackLayout;horizontal=1;startSize=30;horizontalStack=0;resizeParent=1;resizeParentMax=0;resizeLast=0;collapsible=1;marginBottom=0;whiteSpace=wrap;html=1;" vertex="1" parent="1">
          <mxGeometry x="700" y="340" width="70" height="60" as="geometry" />
        </mxCell>
        <mxCell id="L9U4mOg5mWZtMqzpbvcK-29" value="126+3=129" style="text;strokeColor=none;fillColor=none;align=center;verticalAlign=middle;spacingLeft=4;spacingRight=4;overflow=hidden;points=[[0,0.5],[1,0.5]];portConstraint=eastwest;rotatable=0;whiteSpace=wrap;html=1;" vertex="1" parent="L9U4mOg5mWZtMqzpbvcK-28">
          <mxGeometry y="30" width="70" height="30" as="geometry" />
        </mxCell>
        <mxCell id="L9U4mOg5mWZtMqzpbvcK-30" value="Ham" style="swimlane;fontStyle=0;childLayout=stackLayout;horizontal=1;startSize=30;horizontalStack=0;resizeParent=1;resizeParentMax=0;resizeLast=0;collapsible=1;marginBottom=0;whiteSpace=wrap;html=1;" vertex="1" parent="1">
          <mxGeometry x="780" y="340" width="80" height="60" as="geometry" />
        </mxCell>
        <mxCell id="L9U4mOg5mWZtMqzpbvcK-31" value="148+57=205" style="text;strokeColor=none;fillColor=none;align=center;verticalAlign=middle;spacingLeft=4;spacingRight=4;overflow=hidden;points=[[0,0.5],[1,0.5]];portConstraint=eastwest;rotatable=0;whiteSpace=wrap;html=1;" vertex="1" parent="L9U4mOg5mWZtMqzpbvcK-30">
          <mxGeometry y="30" width="80" height="30" as="geometry" />
        </mxCell>
        <mxCell id="L9U4mOg5mWZtMqzpbvcK-33" value="" style="endArrow=classic;html=1;rounded=0;entryX=1;entryY=0;entryDx=0;entryDy=0;" edge="1" parent="1" source="0l1d8Q7E10GmN1pCX7sC-19" target="L9U4mOg5mWZtMqzpbvcK-26">
          <mxGeometry width="50" height="50" relative="1" as="geometry">
            <mxPoint x="910" y="410" as="sourcePoint" />
            <mxPoint x="960" y="360" as="targetPoint" />
          </mxGeometry>
        </mxCell>
        <mxCell id="L9U4mOg5mWZtMqzpbvcK-34" value="" style="endArrow=classic;html=1;rounded=0;entryX=1;entryY=0;entryDx=0;entryDy=0;" edge="1" parent="1" source="0l1d8Q7E10GmN1pCX7sC-19" target="L9U4mOg5mWZtMqzpbvcK-28">
          <mxGeometry width="50" height="50" relative="1" as="geometry">
            <mxPoint x="910" y="410" as="sourcePoint" />
            <mxPoint x="960" y="360" as="targetPoint" />
          </mxGeometry>
        </mxCell>
        <mxCell id="L9U4mOg5mWZtMqzpbvcK-35" value="" style="endArrow=classic;html=1;rounded=0;entryX=0.5;entryY=0;entryDx=0;entryDy=0;" edge="1" parent="1" source="0l1d8Q7E10GmN1pCX7sC-19" target="L9U4mOg5mWZtMqzpbvcK-30">
          <mxGeometry width="50" height="50" relative="1" as="geometry">
            <mxPoint x="910" y="410" as="sourcePoint" />
            <mxPoint x="960" y="360" as="targetPoint" />
          </mxGeometry>
        </mxCell>
        <mxCell id="L9U4mOg5mWZtMqzpbvcK-38" value="Cam" style="swimlane;fontStyle=0;childLayout=stackLayout;horizontal=1;startSize=30;horizontalStack=0;resizeParent=1;resizeParentMax=0;resizeLast=0;collapsible=1;marginBottom=0;whiteSpace=wrap;html=1;" vertex="1" parent="1">
          <mxGeometry x="1038.5" y="340" width="80" height="60" as="geometry" />
        </mxCell>
        <mxCell id="L9U4mOg5mWZtMqzpbvcK-39" value="124+20=144" style="text;strokeColor=none;fillColor=none;align=center;verticalAlign=middle;spacingLeft=4;spacingRight=4;overflow=hidden;points=[[0,0.5],[1,0.5]];portConstraint=eastwest;rotatable=0;whiteSpace=wrap;html=1;" vertex="1" parent="L9U4mOg5mWZtMqzpbvcK-38">
          <mxGeometry y="30" width="80" height="30" as="geometry" />
        </mxCell>
        <mxCell id="L9U4mOg5mWZtMqzpbvcK-40" value="Wat" style="swimlane;fontStyle=0;childLayout=stackLayout;horizontal=1;startSize=30;horizontalStack=0;resizeParent=1;resizeParentMax=0;resizeLast=0;collapsible=1;marginBottom=0;whiteSpace=wrap;html=1;" vertex="1" parent="1">
          <mxGeometry x="948.5" y="340" width="80" height="60" as="geometry" />
        </mxCell>
        <mxCell id="L9U4mOg5mWZtMqzpbvcK-41" value="129+0=129" style="text;strokeColor=none;fillColor=none;align=center;verticalAlign=middle;spacingLeft=4;spacingRight=4;overflow=hidden;points=[[0,0.5],[1,0.5]];portConstraint=eastwest;rotatable=0;whiteSpace=wrap;html=1;" vertex="1" parent="L9U4mOg5mWZtMqzpbvcK-40">
          <mxGeometry y="30" width="80" height="30" as="geometry" />
        </mxCell>
        <mxCell id="L9U4mOg5mWZtMqzpbvcK-43" value="" style="endArrow=classic;html=1;rounded=0;entryX=0;entryY=0;entryDx=0;entryDy=0;" edge="1" parent="1" source="0l1d8Q7E10GmN1pCX7sC-21" target="L9U4mOg5mWZtMqzpbvcK-40">
          <mxGeometry width="50" height="50" relative="1" as="geometry">
            <mxPoint x="910" y="410" as="sourcePoint" />
            <mxPoint x="960" y="360" as="targetPoint" />
          </mxGeometry>
        </mxCell>
        <mxCell id="L9U4mOg5mWZtMqzpbvcK-44" value="" style="endArrow=classic;html=1;rounded=0;entryX=0;entryY=0;entryDx=0;entryDy=0;" edge="1" parent="1" source="0l1d8Q7E10GmN1pCX7sC-21" target="L9U4mOg5mWZtMqzpbvcK-38">
          <mxGeometry width="50" height="50" relative="1" as="geometry">
            <mxPoint x="910" y="410" as="sourcePoint" />
            <mxPoint x="960" y="360" as="targetPoint" />
          </mxGeometry>
        </mxCell>
        <mxCell id="L9U4mOg5mWZtMqzpbvcK-45" value="Cam" style="swimlane;fontStyle=0;childLayout=stackLayout;horizontal=1;startSize=30;horizontalStack=0;resizeParent=1;resizeParentMax=0;resizeLast=0;collapsible=1;marginBottom=0;whiteSpace=wrap;html=1;" vertex="1" parent="1">
          <mxGeometry x="910" y="420" width="80" height="60" as="geometry" />
        </mxCell>
        <mxCell id="L9U4mOg5mWZtMqzpbvcK-46" value="147+20=167" style="text;strokeColor=none;fillColor=none;align=center;verticalAlign=middle;spacingLeft=4;spacingRight=4;overflow=hidden;points=[[0,0.5],[1,0.5]];portConstraint=eastwest;rotatable=0;whiteSpace=wrap;html=1;" vertex="1" parent="L9U4mOg5mWZtMqzpbvcK-45">
          <mxGeometry y="30" width="80" height="30" as="geometry" />
        </mxCell>
        <mxCell id="L9U4mOg5mWZtMqzpbvcK-47" value="" style="endArrow=classic;html=1;rounded=0;entryX=0.5;entryY=0;entryDx=0;entryDy=0;" edge="1" parent="1" source="0l1d8Q7E10GmN1pCX7sC-60" target="L9U4mOg5mWZtMqzpbvcK-45">
          <mxGeometry width="50" height="50" relative="1" as="geometry">
            <mxPoint x="910" y="400" as="sourcePoint" />
            <mxPoint x="960" y="350" as="targetPoint" />
          </mxGeometry>
        </mxCell>
      </root>
    </mxGraphModel>
  </diagram>
</mxfile>
